<?xml version="1.0" encoding="utf-8"?>
<!-- Generator: Adobe Illustrator 24.3.0, SVG Export Plug-In . SVG Version: 6.00 Build 0)  -->
<svg version="1.1" id="Capa_1" xmlns="http://www.w3.org/2000/svg" xmlns:xlink="http://www.w3.org/1999/xlink" x="0px" y="0px"
	 viewBox="0 0 182 116" style="enable-background:new 0 0 182 116;" xml:space="preserve">
<style type="text/css">
	.st0{fill:#B3B4B9;}
</style>
<g>
	<circle class="st0" cx="3" cy="3" r="3"/>
	<circle class="st0" cx="25" cy="3" r="3"/>
	<circle class="st0" cx="47" cy="3" r="3"/>
	<circle class="st0" cx="69" cy="3" r="3"/>
	<circle class="st0" cx="91" cy="3" r="3"/>
	<circle class="st0" cx="113" cy="3" r="3"/>
	<circle class="st0" cx="135" cy="3" r="3"/>
	<circle class="st0" cx="157" cy="3" r="3"/>
	<circle class="st0" cx="179" cy="3" r="3"/>
	<circle class="st0" cx="3" cy="25" r="3"/>
	<circle class="st0" cx="25" cy="25" r="3"/>
	<circle class="st0" cx="47" cy="25" r="3"/>
	<circle class="st0" cx="69" cy="25" r="3"/>
	<circle class="st0" cx="91" cy="25" r="3"/>
	<circle class="st0" cx="113" cy="25" r="3"/>
	<circle class="st0" cx="135" cy="25" r="3"/>
	<circle class="st0" cx="157" cy="25" r="3"/>
	<circle class="st0" cx="179" cy="25" r="3"/>
	<circle class="st0" cx="3" cy="47" r="3"/>
	<circle class="st0" cx="25" cy="47" r="3"/>
	<circle class="st0" cx="47" cy="47" r="3"/>
	<circle class="st0" cx="69" cy="47" r="3"/>
	<circle class="st0" cx="91" cy="47" r="3"/>
	<circle class="st0" cx="113" cy="47" r="3"/>
	<circle class="st0" cx="135" cy="47" r="3"/>
	<circle class="st0" cx="157" cy="47" r="3"/>
	<circle class="st0" cx="179" cy="47" r="3"/>
	<circle class="st0" cx="3" cy="69" r="3"/>
	<circle class="st0" cx="25" cy="69" r="3"/>
	<circle class="st0" cx="47" cy="69" r="3"/>
	<circle class="st0" cx="69" cy="69" r="3"/>
	<circle class="st0" cx="91" cy="69" r="3"/>
	<circle class="st0" cx="113" cy="69" r="3"/>
	<circle class="st0" cx="135" cy="69" r="3"/>
	<circle class="st0" cx="157" cy="69" r="3"/>
	<circle class="st0" cx="179" cy="69" r="3"/>
	<circle class="st0" cx="3" cy="91" r="3"/>
	<circle class="st0" cx="25" cy="91" r="3"/>
	<circle class="st0" cx="47" cy="91" r="3"/>
	<circle class="st0" cx="69" cy="91" r="3"/>
	<circle class="st0" cx="91" cy="91" r="3"/>
	<circle class="st0" cx="113" cy="91" r="3"/>
	<circle class="st0" cx="135" cy="91" r="3"/>
	<circle class="st0" cx="157" cy="91" r="3"/>
	<circle class="st0" cx="179" cy="91" r="3"/>
	<circle class="st0" cx="3" cy="113" r="3"/>
	<circle class="st0" cx="25" cy="113" r="3"/>
	<circle class="st0" cx="47" cy="113" r="3"/>
	<circle class="st0" cx="69" cy="113" r="3"/>
	<circle class="st0" cx="91" cy="113" r="3"/>
	<circle class="st0" cx="113" cy="113" r="3"/>
	<circle class="st0" cx="135" cy="113" r="3"/>
	<circle class="st0" cx="157" cy="113" r="3"/>
	<circle class="st0" cx="179" cy="113" r="3"/>
</g>
</svg>
